<svg xmlns="http://www.w3.org/2000/svg" width="1196" height="1200" viewBox="0 0 1196 1200"><g><g><path d="M584 1c301.278-3.99 484.464 176.927 575 386 58.145 134.274 43.332 349.423-18 468-55.802 107.885-130.475 192.034-230 256-37.279 23.96-81.439 37.169-123 57-4.064 1.94-28.45 6.52-29 5-22.334 18.316-67.73 10.739-97 22-14.485 5.573-35.34-1.83-48 3-14.847 5.665-72.135-3.455-86-6-81.318-14.928-136.254-29.093-198-60-157.238-78.706-261.593-206.85-311-394C8.831 699.482-6.64 627.13 3 582c5.297-24.8-2.24-47.13 4-69 11.414-40.006 14.47-81.297 29-118C99.69 234.108 209.422 119.02 364 49c45.499-20.61 96.583-26.43 149-42l71-6zm-26 62l-1 3c-61.039-1.07-114.542 16.713-157 36-19.582 8.895-37.422 12.875-55 23-113.059 65.12-179.881 141.373-238 262-15.364 31.887-25.982 69.9-36 108l-3 33c-2.703 9.757-6.767 31.34-4 42 30.994-.994 73.358-.33 61 39-8.254 26.269-33.711 14.225-62 21-.446 68.774 20.962 133.79 44 182 67.129 140.478 148.87 222.346 294 285 45.44 19.617 104.926 38.4 168 39l1-43c4.173-9.876 19.782-26.584 40-19 24.733 9.278 13.298 34.054 20 62 62.085.352 123.653-19.056 168-39 146.367-65.824 224.8-140.083 293-284 15.175-32.022 23.168-69.143 36-106l3-35c3.636-8.79 7.43-33.457 5-43-31.815 1.007-75.667-1.445-61-40 9.57-25.154 33.569-13.18 62-20 .668-63.398-19.457-123.088-39-168-60.4-138.807-144.745-226.285-279-291-23.139-11.154-51.815-18.167-76-30-7.874-3.852-25.597-4.112-35-8l-36-3c-8.33-3.301-33.237-7.599-42-5 .863 33.2-.102 48.844-20 61-44.286 1.215-35.992-23.708-40-62h-11zm95 1046c1.638-38.876-35.412-77.557-79-55-23.166 11.989-20.317 29.549-30 56-44.344-10.892-83.186-14.507-120-29l-32-12-2-22c-.058-34.716 7.827-66.873-16-79-27.211-13.849-71.637-2.852-100-14-57.934-22.771-90.901-59.633-115-116-29.069-67.991 15.216-141.355 3-219-5.129-32.599-14.44-64.654-20-95-10.04-54.807.448-137.63 15-184 9.577-30.515 40.333-56.842 59-80 58.25-72.261 201.177-170.137 329-170-1.064 81.313 112.42 78.251 108-1h1c32.577 8.057 62.51 8.772 92 18 108.89 34.075 190.344 94.603 254 174 12.579 15.69 31.049 33.65 39 53 12.663 30.816 26.818 129.986 19 175-7.026 40.453-15.206 76.94-22 119-6.984 43.234 1.793 89.94 12 121 9.342 28.427-6.178 85.222-16 106-21.907 46.343-57.692 81.912-109 99-27.504 9.16-96.014 2.93-111 23-13.151 17.612.332 67.363-7 93-48.065 11.263-90.56 38.44-152 39zM343 267l-25 7c-21.38 12.693-34.772 43.834-21 74l197 230c17.915 22.665 62.977 91.526 105 84 30.781-5.512 50.72-30.889 72-47l153-115c14.11-15.235 23.843-46.469 10-68-12.607-19.608-43.296-32.768-70-21L601 536l-5-4-63-73c-32.095-40.849-68.704-77.737-101-118-26.755-33.355-40.4-61.185-89-74zm-2 24c31.29 4.31 55.192 43.584 75 69l119 137c17.366 22.167 38.286 55.837 63 70l153-118c16.314-13.137 47.642-32.07 63-4 15.347 28.049-18.282 46.563-33 58-44.511 34.588-87.998 64.615-133 100-11.78 9.263-36.255 36.507-51 39-23.798 4.023-67.089-58.901-79-74L357 382c-26.332-33.282-68.573-60.7-16-91zm12 335l-27 5c-22.12 7.774-46.628 28.299-57 48-71.904 136.581 110.296 228.097 216 148 19.628-14.873 38.794-32.808 49-57 10.41-24.675-9.165-54.37-20-66-37.925-40.704-82.277-78.534-161-78zm471 0l-36 7c-34.632 11.444-68.979 31.113-93 54-86.722 82.626 12.614 143.461 86 169 30.495 10.612 71.719-2.296 90-12 31.457-16.699 58.195-40.121 70-76 26.41-80.27-42.979-142.914-117-142zM593 784l-18 9c-9.067 8.576-10.304 23.87-16 36-14.102 30.033-62.783 103.063-21 126 30.544 16.767 39.975-25.78 71-15 13.415 4.661 27.213 25.884 50 15 8.965-4.282 21.022-18.364 21-31-.015-8.864-49.863-123.744-57-131-6.015-6.114-18.08-9.05-30-9zm103 36l2 2"/></g></g></svg>